<svg width="32" height="32" viewBox="0 0 32 32" fill="none" xmlns="http://www.w3.org/2000/svg">
<path d="M24 10.6667H25.3333C26.7478 10.6667 28.1044 11.2286 29.1046 12.2288C30.1048 13.229 30.6667 14.5855 30.6667 16C30.6667 17.4145 30.1048 18.7711 29.1046 19.7713C28.1044 20.7715 26.7478 21.3334 25.3333 21.3334H24" stroke="white" stroke-width="2" stroke-linecap="round" stroke-linejoin="round"/>
<path d="M2.6665 10.6667H23.9998V22.6667C23.9998 24.0812 23.4379 25.4377 22.4377 26.4379C21.4375 27.4381 20.081 28 18.6665 28H7.99984C6.58535 28 5.2288 27.4381 4.2286 26.4379C3.22841 25.4377 2.6665 24.0812 2.6665 22.6667V10.6667Z" fill="white" stroke="white" stroke-width="2" stroke-linecap="round" stroke-linejoin="round"/>
<path d="M8 1.33331V5.33331" stroke="white" stroke-width="2" stroke-linecap="round" stroke-linejoin="round"/>
<path d="M13.3335 1.33331V5.33331" stroke="#7900C2" stroke-width="2" stroke-linecap="round" stroke-linejoin="round"/>
<path d="M18.6665 1.33331V5.33331" stroke="white" stroke-width="2" stroke-linecap="round" stroke-linejoin="round"/>
</svg>
